<?xml version="1.0" standalone="no"?>
<!DOCTYPE svg PUBLIC "-//W3C//DTD SVG 20010904//EN"
 "http://www.w3.org/TR/2001/REC-SVG-20010904/DTD/svg10.dtd">
<svg version="1.0" xmlns="http://www.w3.org/2000/svg"
 width="300.000000pt" height="300.000000pt" viewBox="0 0 300.000000 300.000000"
 preserveAspectRatio="xMidYMid meet">
<metadata>
Created by potrace 1.14, written by Peter Selinger 2001-2017
</metadata>
<g transform="translate(0.000000,300.000000) scale(0.100000,-0.100000)"
fill="#000000" stroke="none">
<path d="M379 2985 c-177 -48 -318 -190 -365 -368 -11 -43 -14 -245 -13 -1112
0 -712 3 -1076 10 -1110 40 -187 206 -349 394 -385 43 -8 364 -10 1135 -8
l1075 3 58 22 c126 48 231 143 290 262 l32 66 3 1125 c2 1090 2 1126 -17 1182
-53 156 -187 280 -352 323 -75 20 -2178 20 -2250 0z"/>
</g>
</svg>
