<?xml version="1.0" standalone="no"?>
<!DOCTYPE svg PUBLIC "-//W3C//DTD SVG 20010904//EN"
 "http://www.w3.org/TR/2001/REC-SVG-20010904/DTD/svg10.dtd">
<svg version="1.0" xmlns="http://www.w3.org/2000/svg"
 width="300.000000pt" height="300.000000pt" viewBox="0 0 300.000000 300.000000"
 preserveAspectRatio="xMidYMid meet">
<metadata>
Created by potrace 1.14, written by Peter Selinger 2001-2017
</metadata>
<g transform="translate(0.000000,300.000000) scale(0.100000,-0.100000)"
fill="#000000" stroke="none">
<path d="M364 2972 c-92 -31 -146 -65 -220 -139 -57 -58 -116 -168 -133 -248
-7 -33 -10 -400 -10 -1090 0 -1140 -2 -1086 61 -1213 37 -76 124 -167 201
-211 30 -17 90 -40 133 -51 75 -20 110 -20 1118 -19 871 0 1050 3 1096 15 177
46 325 186 374 353 14 49 16 175 16 1130 0 1175 2 1128 -59 1233 -75 129 -206
225 -351 257 -28 7 -430 10 -1095 10 l-1050 0 -81 -27z"/>
</g>
</svg>
